<svg width="40" height="40" viewBox="0 0 40 40" fill="none" xmlns="http://www.w3.org/2000/svg">
<path d="M20 40C31.0457 40 40 31.0457 40 20C40 8.95431 31.0457 0 20 0C8.95431 0 0 8.95431 0 20C0 31.0457 8.95431 40 20 40Z" fill="#F0C52C"/>
<path d="M32.6154 12.3677C31.7 12.7692 30.7246 13.0354 29.7077 13.1646C30.7538 12.54 31.5523 11.5585 31.9277 10.3754C30.9523 10.9569 29.8754 11.3677 28.7277 11.5969C27.8015 10.6108 26.4815 10 25.0415 10C22.2477 10 19.9985 12.2677 19.9985 15.0477C19.9985 15.4477 20.0323 15.8323 20.1154 16.1985C15.92 15.9938 12.2077 13.9831 9.71385 10.92C9.27846 11.6754 9.02308 12.54 9.02308 13.4708C9.02308 15.2185 9.92308 16.7677 11.2646 17.6646C10.4538 17.6492 9.65846 17.4138 8.98462 17.0431C8.98462 17.0585 8.98462 17.0785 8.98462 17.0985C8.98462 19.5508 10.7338 21.5877 13.0277 22.0569C12.6169 22.1692 12.1692 22.2231 11.7046 22.2231C11.3815 22.2231 11.0554 22.2046 10.7492 22.1369C11.4031 24.1354 13.2585 25.6046 15.4646 25.6523C13.7477 26.9954 11.5677 27.8046 9.20769 27.8046C8.79385 27.8046 8.39692 27.7862 8 27.7354C10.2354 29.1769 12.8846 30 15.7415 30C25.0277 30 30.1046 22.3077 30.1046 15.64C30.1046 15.4169 30.0969 15.2015 30.0862 14.9877C31.0877 14.2769 31.9292 13.3892 32.6154 12.3677Z" fill="#734C32"/>
</svg>
