<svg width="40" height="40" viewBox="0 0 40 40" fill="none" xmlns="http://www.w3.org/2000/svg">
<path d="M20 40C31.0457 40 40 31.0457 40 20C40 8.95431 31.0457 0 20 0C8.95431 0 0 8.95431 0 20C0 31.0457 8.95431 40 20 40Z" fill="#F0C52C"/>
<path d="M29.959 15.8789C29.9121 14.8164 29.7403 14.086 29.4942 13.4531C29.2403 12.7812 28.8497 12.1797 28.3379 11.6797C27.8379 11.1719 27.2324 10.7773 26.5683 10.5273C25.9317 10.2812 25.2051 10.1094 24.1426 10.0626C23.0722 10.0117 22.7324 10 20.0176 10C17.3027 10 16.9629 10.0117 15.8965 10.0586C14.834 10.1054 14.1036 10.2774 13.4708 10.5234C12.7988 10.7773 12.1973 11.1679 11.6973 11.6797C11.1895 12.1797 10.795 12.7852 10.5449 13.4492C10.2988 14.086 10.127 14.8125 10.0801 15.8749C10.0293 16.9453 10.0176 17.2852 10.0176 20C10.0176 22.7148 10.0293 23.0547 10.0762 24.1211C10.123 25.1836 10.295 25.914 10.5411 26.5469C10.795 27.2188 11.1895 27.8203 11.6973 28.3203C12.1973 28.8281 12.8028 29.2227 13.4668 29.4727C14.1036 29.7188 14.83 29.8906 15.8927 29.9374C16.959 29.9844 17.2989 29.996 20.0138 29.996C22.7286 29.996 23.0684 29.9844 24.1349 29.9374C25.1973 29.8906 25.9278 29.7188 26.5605 29.4727C27.9044 28.9531 28.9669 27.8906 29.4864 26.5469C29.7324 25.9102 29.9044 25.1836 29.9512 24.1211C29.998 23.0547 30.0098 22.7148 30.0098 20C30.0098 17.2852 30.0058 16.9453 29.959 15.8789ZM28.1583 24.043C28.1153 25.0195 27.9512 25.5469 27.8145 25.8984C27.4785 26.7696 26.7871 27.4609 25.916 27.7969C25.5645 27.9337 25.0333 28.0977 24.0605 28.1406C23.0059 28.1876 22.6895 28.1992 20.0215 28.1992C17.3535 28.1992 17.0333 28.1876 15.9824 28.1406C15.0058 28.0977 14.4785 27.9337 14.1269 27.7969C13.6934 27.6367 13.2988 27.3828 12.9785 27.0508C12.6465 26.7265 12.3926 26.3359 12.2324 25.9024C12.0957 25.5508 11.9316 25.0195 11.8888 24.0469C11.8418 22.9922 11.8302 22.6758 11.8302 20.0078C11.8302 17.3398 11.8418 17.0195 11.8888 15.9688C11.9316 14.9922 12.0957 14.4649 12.2324 14.1133C12.3926 13.6797 12.6465 13.2852 12.9825 12.9648C13.3066 12.6328 13.6972 12.3788 14.1309 12.2188C14.4825 12.0821 15.0138 11.918 15.9864 11.875C17.041 11.8282 17.3575 11.8164 20.0254 11.8164C22.6973 11.8164 23.0136 11.8282 24.0645 11.875C25.0411 11.918 25.5684 12.0821 25.92 12.2188C26.3535 12.3788 26.7481 12.6328 27.0684 12.9648C27.4004 13.289 27.6543 13.6797 27.8145 14.1133C27.9512 14.4649 28.1153 14.996 28.1583 15.9688C28.2051 17.0235 28.2169 17.3398 28.2169 20.0078C28.2169 22.6758 28.2051 22.9883 28.1583 24.043Z" fill="#734C32"/>
<path d="M20.0176 14.8633C17.1817 14.8633 14.8809 17.164 14.8809 20C14.8809 22.836 17.1817 25.1367 20.0176 25.1367C22.8536 25.1367 25.1543 22.836 25.1543 20C25.1543 17.164 22.8536 14.8633 20.0176 14.8633ZM20.0176 23.3321C18.1778 23.3321 16.6855 21.8399 16.6855 20C16.6855 18.1601 18.1778 16.6679 20.0176 16.6679C21.8575 16.6679 23.3496 18.1601 23.3496 20C23.3496 21.8399 21.8575 23.3321 20.0176 23.3321Z" fill="#734C32"/>
<path d="M26.5567 14.6602C26.5567 15.3224 26.0198 15.8594 25.3574 15.8594C24.6952 15.8594 24.1582 15.3224 24.1582 14.6602C24.1582 13.9978 24.6952 13.461 25.3574 13.461C26.0198 13.461 26.5567 13.9978 26.5567 14.6602Z" fill="#734C32"/>
</svg>
