<svg width="40" height="40" viewBox="0 0 40 40" fill="none" xmlns="http://www.w3.org/2000/svg">
<path d="M20 40C31.0457 40 40 31.0457 40 20C40 8.95431 31.0457 0 20 0C8.95431 0 0 8.95431 0 20C0 31.0457 8.95431 40 20 40Z" fill="#F0C52C"/>
<path d="M24.2335 11.0944H26.6679V6.85443C26.2479 6.79666 24.8035 6.66666 23.1213 6.66666C19.6113 6.66666 17.2068 8.87443 17.2068 12.9322V16.6667H13.3335V21.4067H17.2068V33.3333H21.9557V21.4078H25.6724L26.2624 16.6678H21.9546V13.4022C21.9557 12.0322 22.3246 11.0944 24.2335 11.0944Z" fill="#734C32"/>
</svg>
